
<svg xmlns="http://www.w3.org/2000/svg" xmlns:xlink="http://www.w3.org/1999/xlink" width="211.4" height="26.208" viewBox="0 0 211.4 26.208">
  <defs>
    <clipPath id="clip-path">
      <rect id="Rectangle_10" data-name="Rectangle 10" width="211.4" height="26.208" transform="translate(0 0)" fill="none"/>
    </clipPath>
  </defs>
  <g id="Group_21" data-name="Group 21" transform="translate(0 0)">
    <g id="Group_8" data-name="Group 8" transform="translate(0 0)" clip-path="url(#clip-path)">
      <path id="Path_4" data-name="Path 4" d="M13.624,1.086h5.765V19.962H14.15l-.527-1.053c-.044.044-.107.1-.191.172a5.237,5.237,0,0,1-.592.375,7.036,7.036,0,0,1-1.02.481,8.847,8.847,0,0,1-1.481.381,10.786,10.786,0,0,1-1.955.171,16.183,16.183,0,0,1-2.692-.2,8.581,8.581,0,0,1-2.29-.724,5.713,5.713,0,0,1-1.816-1.336A5.894,5.894,0,0,1,.428,16.118,9.451,9.451,0,0,1,0,13.143a9.394,9.394,0,0,1,.428-2.968A5.97,5.97,0,0,1,1.586,8.069,5.581,5.581,0,0,1,3.4,6.733a8.76,8.76,0,0,1,2.29-.717,16.183,16.183,0,0,1,2.692-.2,11.082,11.082,0,0,1,1.948.164,8.171,8.171,0,0,1,1.494.389,9.171,9.171,0,0,1,1,.454,3.119,3.119,0,0,1,.612.4l.184.158ZM9.688,16.816a5.086,5.086,0,0,0,1.955-.355,3.093,3.093,0,0,0,1.422-1.211,3.767,3.767,0,0,0,.559-2.106,4.154,4.154,0,0,0-.316-1.672,2.825,2.825,0,0,0-.869-1.145A3.919,3.919,0,0,0,11.2,9.695a5.152,5.152,0,0,0-1.507-.211,5.086,5.086,0,0,0-1.5.211,3.928,3.928,0,0,0-1.237.632,2.821,2.821,0,0,0-.869,1.145,4.146,4.146,0,0,0-.316,1.672,4.143,4.143,0,0,0,.316,1.672,2.864,2.864,0,0,0,.869,1.152,3.848,3.848,0,0,0,1.237.639,5.087,5.087,0,0,0,1.5.21" transform="translate(0 -0.573)"/>
      <path id="Path_5" data-name="Path 5" d="M48.429,12.828q2.422-1.744,7.266-1.744t7.273,1.744Q65.4,14.573,65.4,18.416T62.968,24.01q-2.428,1.75-7.273,1.75t-7.266-1.75q-2.423-1.75-2.422-5.594t2.422-5.588m4.3,8.391a4.309,4.309,0,0,0,2.962.869,4.335,4.335,0,0,0,2.968-.869,3.6,3.6,0,0,0,.968-2.8,3.577,3.577,0,0,0-.968-2.8,4.362,4.362,0,0,0-2.968-.862,4.336,4.336,0,0,0-2.962.862,3.592,3.592,0,0,0-.961,2.8,3.614,3.614,0,0,0,.961,2.8" transform="translate(-24.262 -5.845)"/>
      <path id="Path_6" data-name="Path 6" d="M103.545,11.084a11.451,11.451,0,0,1,3.218.415,6.92,6.92,0,0,1,2.468,1.277,5.464,5.464,0,0,1,1.612,2.29,9.163,9.163,0,0,1,.56,3.35v6.818h-5.765V18.416a4.153,4.153,0,0,0-.316-1.672,2.834,2.834,0,0,0-.869-1.145,3.929,3.929,0,0,0-1.244-.632,5.168,5.168,0,0,0-1.507-.21,5.1,5.1,0,0,0-1.5.21,3.938,3.938,0,0,0-1.237.632,2.822,2.822,0,0,0-.869,1.145,4.137,4.137,0,0,0-.316,1.672v6.818H92.014V11.611h5.765v1.04a2.564,2.564,0,0,1,.243-.171q.164-.1.724-.375a9.605,9.605,0,0,1,1.184-.474,11.952,11.952,0,0,1,1.606-.375,11.673,11.673,0,0,1,2.007-.171" transform="translate(-48.523 -5.845)"/>
      <path id="Path_7" data-name="Path 7" d="M144.57,15.371a2.765,2.765,0,0,0,.316,1.566,1.39,1.39,0,0,0,1.165.428,14.745,14.745,0,0,0,2.324-.231q.921-.131,1.448-.2v4.2a28.672,28.672,0,0,1-4.074.487,18.771,18.771,0,0,1-2.936-.079,4.348,4.348,0,0,1-1.948-.691,6.407,6.407,0,0,1-1.2-1.007,3.118,3.118,0,0,1-.6-1.383A9.237,9.237,0,0,1,138.831,17q-.027-.547-.026-1.6V11.172h-2.093V7.513h2.093v-4.2h5.765v4.2H149.3v3.659H144.57Z" transform="translate(-72.095 -1.748)"/>
      <path id="Path_8" data-name="Path 8" d="M199.922,7.6q1.619,0,2.863.059t2.5.224a13.636,13.636,0,0,1,2.165.441,8.618,8.618,0,0,1,1.717.731,4.361,4.361,0,0,1,1.31,1.086,4.763,4.763,0,0,1,.783,1.507,6.431,6.431,0,0,1,.283,1.981h-.014a6.646,6.646,0,0,1-.362,2.284,4.255,4.255,0,0,1-1.093,1.678,6.621,6.621,0,0,1-1.7,1.145,9.528,9.528,0,0,1-2.33.717,25.008,25.008,0,0,1-2.81.362q-1.448.1-3.317.1H179.991q-1.672,0-2.962-.072a24.92,24.92,0,0,1-2.527-.27,11.669,11.669,0,0,1-2.139-.527,7.658,7.658,0,0,1-1.672-.849,4.409,4.409,0,0,1-1.237-1.231,5.809,5.809,0,0,1-.73-1.678,8.342,8.342,0,0,1-.263-2.192h5.765a2.567,2.567,0,0,0,.059.573,1.077,1.077,0,0,0,.224.454c.11.132.215.248.316.349a1.236,1.236,0,0,0,.467.263l.539.191a3.346,3.346,0,0,0,.678.132q.454.052.737.079t.856.039c.382.009.68.013.9.013h20.925q1.606,0,2.369-.026A16.04,16.04,0,0,0,204.009,15a2.637,2.637,0,0,0,1.336-.474,1.141,1.141,0,0,0,.381-.9,1.483,1.483,0,0,0-.368-1.053,2.3,2.3,0,0,0-1.31-.553,14.074,14.074,0,0,0-1.7-.19q-.757-.033-2.363-.033h-.066l-19.931-.013q-1.619,0-2.857-.059t-2.454-.211a12.311,12.311,0,0,1-2.093-.421,8.143,8.143,0,0,1-1.639-.7,4.055,4.055,0,0,1-1.23-1.04,4.6,4.6,0,0,1-.731-1.435,6.2,6.2,0,0,1-.263-1.882,6.4,6.4,0,0,1,.263-1.9,4.739,4.739,0,0,1,.737-1.474,4.41,4.41,0,0,1,1.224-1.086A8.1,8.1,0,0,1,172.593.8a12.135,12.135,0,0,1,2.092-.481q1.2-.177,2.462-.25T179.991,0h19.931q1.448,0,2.6.06t2.271.2a12.708,12.708,0,0,1,1.961.382,10.361,10.361,0,0,1,1.6.605,4.672,4.672,0,0,1,1.277.875,5.379,5.379,0,0,1,.9,1.191,5.438,5.438,0,0,1,.566,1.547,9.448,9.448,0,0,1,.184,1.948h-5.765a2.9,2.9,0,0,0-.052-.572,1.055,1.055,0,0,0-.211-.454c-.1-.132-.2-.248-.3-.349a1.119,1.119,0,0,0-.441-.263L204,4.976a3.007,3.007,0,0,0-.645-.131q-.435-.053-.711-.079t-.843-.04q-.566-.013-.888-.013H179.991q-1.58,0-2.31.026t-1.612.138a2.386,2.386,0,0,0-1.211.395.947.947,0,0,0-.329.757,1.266,1.266,0,0,0,1.158,1.316,22.877,22.877,0,0,0,4.147.25h20.089Z" transform="translate(-88.837 0)"/>
      <path id="Path_9" data-name="Path 9" d="M270.643,4.758h-5.765V1.086h5.765Zm0,15.2h-5.765V6.338h5.765Z" transform="translate(-139.683 -0.573)"/>
      <path id="Path_10" data-name="Path 10" d="M295.658,11.611h5.765V23.668a10.211,10.211,0,0,1-.954,4.759,5.97,5.97,0,0,1-3.153,2.718,15.612,15.612,0,0,1-5.858.908,19.063,19.063,0,0,1-4-.368,8.16,8.16,0,0,1-2.757-1.066,5.412,5.412,0,0,1-1.633-1.6,5.716,5.716,0,0,1-.783-2.073l5.253-.711c.008.017.03.1.065.236a2.769,2.769,0,0,0,.086.3q.033.086.131.3a.974.974,0,0,0,.224.329l.322.289a1.4,1.4,0,0,0,.487.277q.289.1.652.21a4.3,4.3,0,0,0,.862.158q.5.046,1.092.046a4.725,4.725,0,0,0,3.291-.882q.909-.883.908-3.318v-.513c-.044.044-.107.1-.191.171a5,5,0,0,1-.592.376,6.558,6.558,0,0,1-1.02.474,9.259,9.259,0,0,1-1.481.376,10.832,10.832,0,0,1-1.955.171,16.207,16.207,0,0,1-2.685-.2,9.018,9.018,0,0,1-2.3-.7,5.316,5.316,0,0,1-2.975-3.3,8.523,8.523,0,0,1-.428-2.817,8.857,8.857,0,0,1,.428-2.87,5.723,5.723,0,0,1,1.158-2.047,5.621,5.621,0,0,1,1.816-1.3,9.057,9.057,0,0,1,2.3-.7,16.264,16.264,0,0,1,2.685-.2,11.082,11.082,0,0,1,1.948.164,8.121,8.121,0,0,1,1.494.388,9.013,9.013,0,0,1,1,.454,3.143,3.143,0,0,1,.612.4l.184.158Zm-3.936,9.952q3.936,0,3.936-3.357a3.914,3.914,0,0,0-.316-1.639,2.538,2.538,0,0,0-.875-1.073,3.943,3.943,0,0,0-1.238-.56,6.477,6.477,0,0,0-3.014,0,3.943,3.943,0,0,0-1.238.56,2.494,2.494,0,0,0-.869,1.073,3.984,3.984,0,0,0-.309,1.639q0,3.356,3.923,3.357" transform="translate(-148.73 -5.846)"/>
      <path id="Path_11" data-name="Path 11" d="M340.77,11.084a11.45,11.45,0,0,1,3.218.415,6.92,6.92,0,0,1,2.468,1.277,5.464,5.464,0,0,1,1.612,2.29,9.163,9.163,0,0,1,.56,3.35v6.818h-5.765V18.416a4.152,4.152,0,0,0-.316-1.672,2.833,2.833,0,0,0-.869-1.145,3.928,3.928,0,0,0-1.244-.632,5.168,5.168,0,0,0-1.507-.21,5.1,5.1,0,0,0-1.5.21,3.937,3.937,0,0,0-1.237.632,2.822,2.822,0,0,0-.869,1.145A4.137,4.137,0,0,0,335,18.416v6.818h-5.765V11.611H335v1.04a2.562,2.562,0,0,1,.243-.171q.164-.1.724-.375a9.607,9.607,0,0,1,1.184-.474,11.952,11.952,0,0,1,1.606-.375,11.673,11.673,0,0,1,2.007-.171" transform="translate(-173.624 -5.845)"/>
      <rect id="Rectangle_9" data-name="Rectangle 9" width="5.279" height="5.291" transform="translate(177.071 14.098)"/>
      <path id="Path_12" data-name="Path 12" d="M398.8,11.084q1.527,0,2.672.072a19.128,19.128,0,0,1,2.172.257,7.655,7.655,0,0,1,1.737.5,5.685,5.685,0,0,1,1.283.783,3.354,3.354,0,0,1,.9,1.139,6.2,6.2,0,0,1,.5,1.54,10.45,10.45,0,0,1,.171,2v7.858H403l-.526-1.054a8.875,8.875,0,0,1-2.561,1.2,11.848,11.848,0,0,1-3.2.381,20.659,20.659,0,0,1-2.186-.105,10.484,10.484,0,0,1-1.974-.408,5.784,5.784,0,0,1-1.665-.783,3.561,3.561,0,0,1-1.1-1.29,4.005,4.005,0,0,1-.42-1.875,3.531,3.531,0,0,1,2.323-3.389,18.052,18.052,0,0,1,7.115-1.06,19.081,19.081,0,0,0,2.383-.112,2.786,2.786,0,0,0,1.06-.277.528.528,0,0,0,.23-.454q0-.513-1.245-.783a12,12,0,0,0-2.9-.217q-.9.026-1.7.1t-1.323.138a11.421,11.421,0,0,0-1.185.224q-.664.157-.941.237t-.967.283q-.692.2-.889.27l-1.171-3.62a26.734,26.734,0,0,1,4.284-1.119,24.549,24.549,0,0,1,4.364-.434m-3.673,9.951q0,.9,1.685,1.112a6.95,6.95,0,0,0,3.508-.513,3.169,3.169,0,0,0,2.152-2.165q-.8.1-1.718.171t-1.581.092q-.664.026-1.348.066t-1.139.112a5.209,5.209,0,0,0-.829.2,1.122,1.122,0,0,0-.553.355.91.91,0,0,0-.178.572" transform="translate(-205.332 -5.845)"/>
      <path id="Path_13" data-name="Path 13" d="M440.831,4.758h-5.765V1.086h5.765Zm0,15.2h-5.765V6.338h5.765Z" transform="translate(-229.432 -0.573)"/>
    </g>
  </g>
</svg>
